<?xml version="1.0" encoding="utf-8"?>
<!-- Generator: Adobe Illustrator 27.9.1, SVG Export Plug-In . SVG Version: 6.00 Build 0)  -->
<svg version="1.1" id="Layer_1" xmlns="http://www.w3.org/2000/svg" xmlns:xlink="http://www.w3.org/1999/xlink" x="0px" y="0px"
	 viewBox="0 0 6498.95 3061.42" style="enable-background:new 0 0 6498.95 3061.42;" xml:space="preserve">
<style type="text/css">
	.st0{fill:#FFFFFF;}
</style>
<g>
	<path class="st0" d="M3313,2783.21h-11.69l-487.15-1128.18h-325.39v46.75c35.06,3.9,61.38,11.69,78.91,23.39
		c17.53,11.69,29.22,29.57,35.06,53.59c5.84,24.05,8.76,60.09,8.76,108.14v886.57v235.77h99.39v-235.77v-923.59h9.73l500.77,1159.36
		h93.52l489.08-1167.16h11.69v931.39v235.77h165.63v-235.77v-888.54c0-48.03,3.22-84.41,9.75-109.12
		c6.49-24.66,18.5-42.19,36.05-52.61c17.53-10.37,43.16-17.53,76.96-21.43v-46.75h-317.61L3313,2783.21z"/>
	<path class="st0" d="M5187.17,1724.19c-101.32-60.41-216.95-90.61-346.83-90.61c-127.32,0-241.94,30.2-343.91,90.61
		c-101.99,60.41-182.19,143.88-240.65,250.38c-58.44,106.52-87.68,226.04-87.68,358.55c0,132.48,29.24,251.68,87.68,357.54
		c58.46,105.88,138.66,188.99,240.65,249.4c101.97,60.41,216.59,90.61,343.91,90.61c129.88,0,245.51-30.2,346.83-90.61
		c101.34-60.41,180.88-143.52,238.69-249.4c57.8-105.86,86.71-225.06,86.71-357.54c0-132.51-28.92-252.02-86.71-358.55
		C5368.05,1868.07,5288.51,1784.59,5187.17,1724.19z M5263.18,2647.78c-40.28,91.59-97.13,162.39-170.5,212.38
		c-73.41,50.04-157.52,75.02-252.34,75.02c-93.53,0-176.67-24.98-249.4-75.02c-72.77-49.99-129.59-120.79-170.5-212.38
		c-40.93-91.57-61.38-196.45-61.38-314.66c0-118.19,20.45-223.12,61.38-314.69c40.9-91.59,97.73-162.71,170.5-213.36
		c72.73-50.67,155.87-76,249.4-76c94.81,0,178.92,25.33,252.34,76c73.37,50.65,130.22,121.77,170.5,213.36
		c40.24,91.57,60.4,196.5,60.4,314.69C5323.57,2451.33,5303.42,2556.21,5263.18,2647.78z"/>
	<path class="st0" d="M6402.32,2441.23c-45.48-55.19-114.96-103.56-208.49-145.16l-204.6-95.47
		c-66.24-29.86-113.98-63.64-143.22-101.32c-29.22-37.66-43.83-82.47-43.83-134.45c0-72.74,25.97-130.55,77.95-173.43
		c51.93-42.85,117.55-64.31,196.78-64.31c77.95,0,143.86,20.47,197.79,61.39c53.88,40.92,93.18,106.87,117.89,197.77h48.71v-261.1
		c-42.86-25.99-96.14-47.73-159.78-65.29c-63.66-17.53-127.96-26.31-192.89-26.31c-85.75,0-162.4,16.92-229.93,50.67
		c-67.57,33.78-120.17,79.58-157.83,137.36c-37.7,57.81-56.51,121.8-56.51,191.94c0,75.34,21.42,142.9,64.31,202.62
		c42.86,59.77,107.79,109.15,194.84,148.1l204.6,91.57c71.42,33.81,123.04,68.55,154.9,104.27c31.8,35.74,47.74,79.58,47.74,131.53
		c0,50.65-13.34,94.48-39.96,131.5c-26.64,37.02-61.7,65.29-105.21,84.78c-43.53,19.49-89.96,29.22-139.33,29.22
		c-88.35,0-163.37-25.35-225.05-76c-61.7-50.65-110.09-127.92-145.15-231.87h-48.7v270.85c59.73,42.85,124.7,75.34,194.84,97.43
		c70.15,22.06,142.88,33.12,218.22,33.12c84.43,0,160.77-16.57,228.96-49.69c68.19-33.12,122.08-78.92,161.72-137.36
		c39.62-58.47,59.43-124.71,59.43-198.75C6470.52,2564.33,6447.78,2496.47,6402.32,2441.23z"/>
	<path class="st0" d="M1921.54,1655.03h-95.48l-440.37,1118.45l-94.31,235.77h102.07l93.56-233.83l78.53-198.75h558.41l80.12,196.81
		l94.98,235.77h185.7l-103.37-245.53L1921.54,1655.03z M1602.5,2483.13l233.29-590.4h9.73l240.35,590.4H1602.5z"/>
	<path class="st0" d="M800.44,2295.12c75.33-29.25,133.47-69.82,174.39-121.8c40.93-51.93,61.38-112.33,61.38-181.2
		c0-68.84-19.83-128.61-59.43-179.29c-39.64-50.65-96.47-89.63-170.5-116.89c-74.04-27.29-159.78-40.92-257.19-40.92H56.1v46.75
		c35.09,3.9,61.06,11.4,77.95,22.41c16.86,11.06,28.55,28.59,35.08,52.61c6.47,24.05,9.73,59.43,9.73,106.2v894.35v231.9h165.63
		v-231.9v-436.46h149.27l577.71,668.36h171.28v-5.86L650.71,2331.4C704.7,2324.39,754.97,2312.74,800.44,2295.12z M344.49,2251.26
		v-504.66h173.42c106.48,0,189.3,21.13,248.43,63.32c59.08,42.24,88.65,103.6,88.65,184.14c0,81.83-29.89,145.16-89.62,189.97
		c-59.77,44.82-144.2,67.22-253.32,67.22H344.49z"/>
	<path class="st0" d="M2815.58,1158.82L2355.75,50.11h-95.48l-440.38,1118.45l-94.31,235.77h102.07l93.57-233.81l78.53-198.75h558.4
		l80.12,196.79l94.98,235.77h185.7L2815.58,1158.82z M2036.71,878.24L2270,287.82h9.73l240.35,590.42H2036.71z"/>
	<path class="st0" d="M3058.38,169.94c6.47,24.05,9.73,59.43,9.73,106.2v900.2v227.97h165.63v-229.94V831.46h181.2
		c101.32,0,190.63-15.59,267.93-46.75c77.26-31.18,137.03-76.32,179.25-135.43c42.2-59.11,63.34-129.57,63.34-211.4
		c0-80.54-21.14-150.06-63.34-208.51c-42.22-58.45-101.99-102.94-179.25-133.47c-77.3-30.52-166.61-45.8-267.93-45.8h-471.53v46.78
		c35.06,3.9,61.38,11.03,78.91,21.43C3039.86,128.73,3051.85,145.92,3058.38,169.94z M3233.74,141.7h148.09
		c115.59,0,204.88,24.34,267.92,73.06c62.99,48.71,94.49,123.1,94.49,223.12c0,98.73-31.84,174.06-95.46,226.01
		c-63.68,51.97-152.67,77.94-266.95,77.94h-148.09V141.7z"/>
	<path class="st0" d="M4998.38,1358.53c86.37-44.82,165.3-113.98,236.74-207.5l-44.8-40.92c-62.37,58.45-128.3,102.62-197.79,132.48
		c-69.5,29.91-147.77,44.82-234.79,44.82c-103.94,0-197.46-23.36-280.59-70.14c-83.14-46.75-148.76-113.98-196.8-201.67
		c-48.08-87.69-72.1-191.25-72.1-310.79c0-111.7,22.09-211.72,66.26-300.08c44.15-88.31,105.21-157.49,183.16-207.5
		c77.95-49.99,164.96-75.02,261.1-75.02c84.42,0,156.86,23.39,217.26,70.14c60.41,46.75,106.2,116.28,137.37,208.48h48.71V126.11
		c-57.17-32.46-118.85-56.8-185.11-73.08c-66.24-16.23-137.7-24.34-214.33-24.34c-126.01,0-242.58,28.9-349.75,86.71
		C4265.75,173.2,4180,255.68,4115.72,362.83c-64.31,107.18-96.47,230.28-96.47,369.26c0,140.28,31.18,263.03,93.53,368.26
		c62.37,105.22,145.47,185.78,249.41,241.63c103.92,55.85,217.56,83.77,340.99,83.77
		C4813.59,1425.75,4911.99,1403.34,4998.38,1358.53z"/>
	<polygon class="st0" points="5563.19,1172.45 5563.19,280.04 5563.19,50.11 5397.56,50.11 5397.56,280.04 5397.56,1172.45 
		5397.56,1404.33 5563.19,1404.33 	"/>
	<path class="st0" d="M922.01,270.29l358.83,581.74v316.53v235.77h138.04v-235.77V835.85l350.72-553.87
		c37.66-58.45,70.45-100.98,98.4-127.63c27.93-26.6,65.92-45.77,114-57.47V50.11H1637.1v46.78c32.46,9.1,53.26,21.43,62.35,37.02
		c9.09,15.57,9.75,35.4,1.96,59.43c-7.8,24.05-23.38,54.89-46.77,92.55L1375.99,724.3h-9.73l-266.95-438.42
		c-22.11-37.66-37.02-68.2-44.82-91.57c-7.8-23.39-6.51-43.17,3.89-59.45c10.4-16.23,33.77-28.88,70.15-37.98V50.11H703.75v46.78
		c44.15,10.39,90.43,26.34,118.45,49.4C852.53,171.24,890.83,215.74,922.01,270.29z"/>
</g>
</svg>
